<svg xmlns="http://www.w3.org/2000/svg" viewBox="0 0 32 32" fill="none">
  <!-- Fondo -->
  <rect width="32" height="32" rx="6" fill="#0a2540"/>
  
  <!-- Casa/Estructura -->
  <path d="M6 18L16 10L26 18V26C26 26.5523 25.5523 27 25 27H7C6.44772 27 6 26.5523 6 26V18Z" fill="#d4af37" stroke="#ffffff" stroke-width="0.5"/>
  
  <!-- Techo -->
  <path d="M4 18L16 8L28 18" stroke="#ffffff" stroke-width="1.5" stroke-linecap="round" stroke-linejoin="round"/>
  
  <!-- Ventana -->
  <rect x="12" y="16" width="8" height="6" fill="#ffffff" rx="1"/>
  <line x1="16" y1="16" x2="16" y2="22" stroke="#0a2540" stroke-width="0.5"/>
  <line x1="12" y1="19" x2="20" y2="19" stroke="#0a2540" stroke-width="0.5"/>
  
  <!-- Puerta -->
  <rect x="8" y="20" width="4" height="7" fill="#ffffff" rx="0.5"/>
  <circle cx="10.5" cy="23.5" r="0.5" fill="#0a2540"/>
  
  <!-- Herramientas -->
  <path d="M23 14L24 13L25 14L24 15Z" fill="#d4af37"/>
  <line x1="24" y1="15" x2="24" y2="17" stroke="#d4af37" stroke-width="0.8"/>
</svg>
